<?xml version="1.0" encoding="iso-8859-1"?>
<!-- Generator: Adobe Illustrator 19.0.0, SVG Export Plug-In . SVG Version: 6.00 Build 0)  -->
<svg version="1.1" height="32"
width="32" id="Capa_1" xmlns="http://www.w3.org/2000/svg" xmlns:xlink="http://www.w3.org/1999/xlink" x="0px" y="0px"
	 viewBox="0 0 325.861 325.861" style="enable-background:new 0 0 325.861 325.861;" xml:space="preserve">
<path style="fill:#FFFFFF;" d="M284.803,295.559c-52.477,19.965-111.785,7.286-151.51-32.392
	c-14.839-15.159-26.243-33.334-33.437-53.29h146.286c5.771,0,10.449-4.678,10.449-10.449c0-5.771-4.678-10.449-10.449-10.449H94.631
	c-2.958-15.507-3.311-31.398-1.045-47.02h168.229c5.771,0,10.449-4.678,10.449-10.449c0-5.771-4.678-10.449-10.449-10.449H98.289
	c22.73-74.818,101.808-117.044,176.626-94.314c3.337,1.014,6.635,2.15,9.888,3.408c5.338,2.152,11.411-0.417,13.584-5.747
	c2.152-5.338-0.417-11.411-5.747-13.584c-84.36-32.248-178.889,9.998-211.136,94.357c-1.988,5.202-3.71,10.502-5.158,15.879H37.162
	c-5.771,0-10.449,4.678-10.449,10.449c0,5.771,4.678,10.449,10.449,10.449h35.527c-2.176,15.612-1.999,31.461,0.522,47.02H37.162
	c-5.771,0-10.449,4.678-10.449,10.449c0,5.771,4.678,10.449,10.449,10.449h40.751c7.89,25.602,21.874,48.908,40.751,67.918
	c30.598,30.688,72.126,47.975,115.461,48.065c20.007-0.093,39.832-3.81,58.514-10.971c5.33-2.172,7.899-8.246,5.747-13.584
	C296.214,295.976,290.141,293.406,284.803,295.559z"/>
<g>
</g>
<g>
</g>
<g>
</g>
<g>
</g>
<g>
</g>
<g>
</g>
<g>
</g>
<g>
</g>
<g>
</g>
<g>
</g>
<g>
</g>
<g>
</g>
<g>
</g>
<g>
</g>
<g>
</g>
</svg>
